<mxfile host="65bd71144e" scale="2" border="30">
    <diagram id="0QhtwqMjpmc_AO-MrRb4" name="第 1 页">
        <mxGraphModel dx="1502" dy="863" grid="0" gridSize="10" guides="1" tooltips="1" connect="1" arrows="1" fold="1" page="1" pageScale="1" pageWidth="1654" pageHeight="2336" math="0" shadow="0">
            <root>
                <mxCell id="0"/>
                <mxCell id="1" parent="0"/>
                <mxCell id="371" value="" style="rounded=1;whiteSpace=wrap;html=1;arcSize=6;strokeWidth=2;" parent="1" vertex="1">
                    <mxGeometry x="59" y="54" width="798" height="653" as="geometry"/>
                </mxCell>
                <mxCell id="370" value="" style="rounded=1;whiteSpace=wrap;html=1;arcSize=7;strokeWidth=2;" parent="1" vertex="1">
                    <mxGeometry x="77" y="342" width="508" height="346" as="geometry"/>
                </mxCell>
                <mxCell id="369" value="" style="rounded=1;whiteSpace=wrap;html=1;strokeWidth=2;" parent="1" vertex="1">
                    <mxGeometry x="77" y="72.75" width="148" height="248.5" as="geometry"/>
                </mxCell>
                <mxCell id="313" value="" style="rounded=1;whiteSpace=wrap;html=1;fontFamily=Tahoma;fontSize=12;fontColor=#345253;strokeWidth=2;fillColor=#EDF2F4;strokeColor=none;" parent="1" vertex="1">
                    <mxGeometry x="451" y="102" width="110" height="190" as="geometry"/>
                </mxCell>
                <mxCell id="281" value="" style="rounded=1;whiteSpace=wrap;html=1;fontFamily=Tahoma;fontSize=12;fontColor=#345253;strokeWidth=2;fillColor=#EDF2F4;strokeColor=none;" parent="1" vertex="1">
                    <mxGeometry x="451" y="367" width="110" height="260" as="geometry"/>
                </mxCell>
                <mxCell id="282" value="&lt;font color=&quot;#ffffff&quot;&gt;Partition 01&lt;/font&gt;" style="rounded=1;whiteSpace=wrap;html=1;fontFamily=Tahoma;fontSize=12;fontColor=#345253;strokeWidth=2;fillColor=#345253;strokeColor=none;" parent="1" vertex="1">
                    <mxGeometry x="466" y="387" width="80" height="40" as="geometry"/>
                </mxCell>
                <mxCell id="283" value="&lt;font color=&quot;#ffffff&quot;&gt;Partition 02&lt;/font&gt;" style="rounded=1;whiteSpace=wrap;html=1;fontFamily=Tahoma;fontSize=12;fontColor=#345253;strokeWidth=2;fillColor=#345253;strokeColor=none;" parent="1" vertex="1">
                    <mxGeometry x="466" y="447" width="80" height="40" as="geometry"/>
                </mxCell>
                <mxCell id="284" value="&lt;font color=&quot;#ffffff&quot;&gt;Partition 03&lt;/font&gt;" style="rounded=1;whiteSpace=wrap;html=1;fontFamily=Tahoma;fontSize=12;fontColor=#345253;strokeWidth=2;fillColor=#345253;strokeColor=none;" parent="1" vertex="1">
                    <mxGeometry x="466" y="507" width="80" height="40" as="geometry"/>
                </mxCell>
                <mxCell id="203" value="" style="rounded=1;whiteSpace=wrap;html=1;fontFamily=Tahoma;fontSize=12;fontColor=#345253;strokeWidth=2;fillColor=#EDF2F4;strokeColor=none;" parent="1" vertex="1">
                    <mxGeometry x="96" y="102" width="110" height="190" as="geometry"/>
                </mxCell>
                <mxCell id="198" value="&lt;font color=&quot;#ffffff&quot;&gt;Partition 01&lt;/font&gt;" style="rounded=1;whiteSpace=wrap;html=1;fontFamily=Tahoma;fontSize=12;fontColor=#345253;strokeWidth=2;fillColor=#345253;strokeColor=none;" parent="1" vertex="1">
                    <mxGeometry x="111" y="117" width="80" height="40" as="geometry"/>
                </mxCell>
                <mxCell id="199" value="&lt;font color=&quot;#ffffff&quot;&gt;Partition 02&lt;/font&gt;" style="rounded=1;whiteSpace=wrap;html=1;fontFamily=Tahoma;fontSize=12;fontColor=#345253;strokeWidth=2;fillColor=#345253;strokeColor=none;" parent="1" vertex="1">
                    <mxGeometry x="111" y="177" width="80" height="40" as="geometry"/>
                </mxCell>
                <mxCell id="200" value="&lt;font color=&quot;#ffffff&quot;&gt;Partition 03&lt;/font&gt;" style="rounded=1;whiteSpace=wrap;html=1;fontFamily=Tahoma;fontSize=12;fontColor=#345253;strokeWidth=2;fillColor=#345253;strokeColor=none;" parent="1" vertex="1">
                    <mxGeometry x="111" y="237" width="80" height="40" as="geometry"/>
                </mxCell>
                <mxCell id="208" value="" style="rounded=1;whiteSpace=wrap;html=1;fontFamily=Tahoma;fontSize=12;fontColor=#345253;strokeWidth=2;fillColor=#EDF2F4;strokeColor=none;" parent="1" vertex="1">
                    <mxGeometry x="271" y="367" width="110" height="140" as="geometry"/>
                </mxCell>
                <mxCell id="332" style="edgeStyle=orthogonalEdgeStyle;rounded=0;orthogonalLoop=1;jettySize=auto;html=1;entryX=0;entryY=0.5;entryDx=0;entryDy=0;strokeColor=#999999;endArrow=oval;endFill=1;" parent="1" source="210" target="282" edge="1">
                    <mxGeometry relative="1" as="geometry"/>
                </mxCell>
                <mxCell id="210" value="&lt;font color=&quot;#ffffff&quot;&gt;Partition 01&lt;/font&gt;" style="rounded=1;whiteSpace=wrap;html=1;fontFamily=Tahoma;fontSize=12;fontColor=#345253;strokeWidth=2;fillColor=#345253;strokeColor=none;" parent="1" vertex="1">
                    <mxGeometry x="286" y="387" width="80" height="40" as="geometry"/>
                </mxCell>
                <mxCell id="333" style="edgeStyle=orthogonalEdgeStyle;rounded=0;orthogonalLoop=1;jettySize=auto;html=1;exitX=1;exitY=0.5;exitDx=0;exitDy=0;entryX=0;entryY=0.5;entryDx=0;entryDy=0;endArrow=oval;endFill=1;strokeColor=#999999;" parent="1" source="212" target="283" edge="1">
                    <mxGeometry relative="1" as="geometry"/>
                </mxCell>
                <mxCell id="212" value="&lt;font color=&quot;#ffffff&quot;&gt;Partition 02&lt;/font&gt;" style="rounded=1;whiteSpace=wrap;html=1;fontFamily=Tahoma;fontSize=12;fontColor=#345253;strokeWidth=2;fillColor=#345253;strokeColor=none;" parent="1" vertex="1">
                    <mxGeometry x="286" y="447" width="80" height="40" as="geometry"/>
                </mxCell>
                <mxCell id="221" value="" style="rounded=1;whiteSpace=wrap;html=1;fontFamily=Tahoma;fontSize=12;fontColor=#345253;strokeWidth=2;fillColor=#EDF2F4;strokeColor=none;" parent="1" vertex="1">
                    <mxGeometry x="271" y="537" width="110" height="140" as="geometry"/>
                </mxCell>
                <mxCell id="334" style="rounded=0;orthogonalLoop=1;jettySize=auto;html=1;exitX=1;exitY=0.5;exitDx=0;exitDy=0;entryX=0;entryY=0.5;entryDx=0;entryDy=0;endArrow=oval;endFill=1;strokeColor=#999999;" parent="1" source="222" target="284" edge="1">
                    <mxGeometry relative="1" as="geometry"/>
                </mxCell>
                <mxCell id="222" value="&lt;font color=&quot;#ffffff&quot;&gt;Partition 01&lt;/font&gt;" style="rounded=1;whiteSpace=wrap;html=1;fontFamily=Tahoma;fontSize=12;fontColor=#345253;strokeWidth=2;fillColor=#345253;strokeColor=none;" parent="1" vertex="1">
                    <mxGeometry x="286" y="557" width="80" height="40" as="geometry"/>
                </mxCell>
                <mxCell id="223" value="&lt;font color=&quot;#ffffff&quot;&gt;Partition 02&lt;/font&gt;" style="rounded=1;whiteSpace=wrap;html=1;fontFamily=Tahoma;fontSize=12;fontColor=#345253;strokeWidth=2;fillColor=#345253;strokeColor=none;" parent="1" vertex="1">
                    <mxGeometry x="286" y="617" width="80" height="40" as="geometry"/>
                </mxCell>
                <mxCell id="258" value="&lt;b&gt;&lt;i&gt;RDD A&lt;/i&gt;&lt;/b&gt;" style="text;html=1;strokeColor=none;fillColor=none;align=center;verticalAlign=middle;whiteSpace=wrap;rounded=0;fontFamily=Tahoma;fontSize=14;fontColor=#345253;" parent="1" vertex="1">
                    <mxGeometry x="126" y="82" width="50" height="20" as="geometry"/>
                </mxCell>
                <mxCell id="259" value="&lt;b&gt;&lt;i&gt;RDD F&lt;/i&gt;&lt;/b&gt;" style="text;html=1;strokeColor=none;fillColor=none;align=center;verticalAlign=middle;whiteSpace=wrap;rounded=0;fontFamily=Tahoma;fontSize=14;fontColor=#345253;" parent="1" vertex="1">
                    <mxGeometry x="481" y="347" width="50" height="20" as="geometry"/>
                </mxCell>
                <mxCell id="264" value="&lt;b&gt;&lt;i&gt;RDD D&lt;/i&gt;&lt;/b&gt;" style="text;html=1;strokeColor=none;fillColor=none;align=center;verticalAlign=middle;whiteSpace=wrap;rounded=0;fontFamily=Tahoma;fontSize=14;fontColor=#345253;" parent="1" vertex="1">
                    <mxGeometry x="301" y="347" width="50" height="20" as="geometry"/>
                </mxCell>
                <mxCell id="265" value="&lt;b&gt;&lt;i&gt;RDD E&lt;/i&gt;&lt;/b&gt;" style="text;html=1;strokeColor=none;fillColor=none;align=center;verticalAlign=middle;whiteSpace=wrap;rounded=0;fontFamily=Tahoma;fontSize=14;fontColor=#345253;" parent="1" vertex="1">
                    <mxGeometry x="301" y="517" width="50" height="20" as="geometry"/>
                </mxCell>
                <mxCell id="314" value="&lt;font color=&quot;#ffffff&quot;&gt;Partition 01&lt;/font&gt;" style="rounded=1;whiteSpace=wrap;html=1;fontFamily=Tahoma;fontSize=12;fontColor=#345253;strokeWidth=2;fillColor=#345253;strokeColor=none;" parent="1" vertex="1">
                    <mxGeometry x="466" y="117" width="80" height="40" as="geometry"/>
                </mxCell>
                <mxCell id="315" value="&lt;font color=&quot;#ffffff&quot;&gt;Partition 02&lt;/font&gt;" style="rounded=1;whiteSpace=wrap;html=1;fontFamily=Tahoma;fontSize=12;fontColor=#345253;strokeWidth=2;fillColor=#345253;strokeColor=none;" parent="1" vertex="1">
                    <mxGeometry x="466" y="177" width="80" height="40" as="geometry"/>
                </mxCell>
                <mxCell id="316" value="&lt;font color=&quot;#ffffff&quot;&gt;Partition 03&lt;/font&gt;" style="rounded=1;whiteSpace=wrap;html=1;fontFamily=Tahoma;fontSize=12;fontColor=#345253;strokeWidth=2;fillColor=#345253;strokeColor=none;" parent="1" vertex="1">
                    <mxGeometry x="466" y="237" width="80" height="40" as="geometry"/>
                </mxCell>
                <mxCell id="317" value="&lt;b&gt;&lt;i&gt;RDD B&lt;/i&gt;&lt;/b&gt;" style="text;html=1;strokeColor=none;fillColor=none;align=center;verticalAlign=middle;whiteSpace=wrap;rounded=0;fontFamily=Tahoma;fontSize=14;fontColor=#345253;" parent="1" vertex="1">
                    <mxGeometry x="481" y="82" width="50" height="20" as="geometry"/>
                </mxCell>
                <mxCell id="318" value="" style="rounded=1;whiteSpace=wrap;html=1;fontFamily=Tahoma;fontSize=12;fontColor=#345253;strokeWidth=2;fillColor=#EDF2F4;strokeColor=none;" parent="1" vertex="1">
                    <mxGeometry x="96" y="367" width="110" height="140" as="geometry"/>
                </mxCell>
                <mxCell id="336" style="edgeStyle=none;rounded=0;orthogonalLoop=1;jettySize=auto;html=1;exitX=1;exitY=0.5;exitDx=0;exitDy=0;endArrow=oval;endFill=1;strokeColor=#999999;" parent="1" source="319" target="210" edge="1">
                    <mxGeometry relative="1" as="geometry"/>
                </mxCell>
                <mxCell id="319" value="&lt;font color=&quot;#ffffff&quot;&gt;Partition 01&lt;/font&gt;" style="rounded=1;whiteSpace=wrap;html=1;fontFamily=Tahoma;fontSize=12;fontColor=#345253;strokeWidth=2;fillColor=#345253;strokeColor=none;" parent="1" vertex="1">
                    <mxGeometry x="111" y="387" width="80" height="40" as="geometry"/>
                </mxCell>
                <mxCell id="337" style="edgeStyle=none;rounded=0;orthogonalLoop=1;jettySize=auto;html=1;exitX=1;exitY=0.5;exitDx=0;exitDy=0;entryX=0;entryY=0.5;entryDx=0;entryDy=0;endArrow=oval;endFill=1;strokeColor=#999999;" parent="1" source="320" target="212" edge="1">
                    <mxGeometry relative="1" as="geometry"/>
                </mxCell>
                <mxCell id="320" value="&lt;font color=&quot;#ffffff&quot;&gt;Partition 02&lt;/font&gt;" style="rounded=1;whiteSpace=wrap;html=1;fontFamily=Tahoma;fontSize=12;fontColor=#345253;strokeWidth=2;fillColor=#345253;strokeColor=none;" parent="1" vertex="1">
                    <mxGeometry x="111" y="447" width="80" height="40" as="geometry"/>
                </mxCell>
                <mxCell id="321" value="&lt;b&gt;&lt;i&gt;RDD C&lt;/i&gt;&lt;/b&gt;" style="text;html=1;strokeColor=none;fillColor=none;align=center;verticalAlign=middle;whiteSpace=wrap;rounded=0;fontFamily=Tahoma;fontSize=14;fontColor=#345253;" parent="1" vertex="1">
                    <mxGeometry x="126" y="347" width="50" height="20" as="geometry"/>
                </mxCell>
                <mxCell id="322" value="&lt;font color=&quot;#ffffff&quot;&gt;Partition 04&lt;/font&gt;" style="rounded=1;whiteSpace=wrap;html=1;fontFamily=Tahoma;fontSize=12;fontColor=#345253;strokeWidth=2;fillColor=#345253;strokeColor=none;" parent="1" vertex="1">
                    <mxGeometry x="466" y="567" width="80" height="40" as="geometry"/>
                </mxCell>
                <mxCell id="324" value="" style="rounded=1;whiteSpace=wrap;html=1;fontFamily=Tahoma;fontSize=12;fontColor=#345253;strokeWidth=2;fillColor=#EDF2F4;strokeColor=none;" parent="1" vertex="1">
                    <mxGeometry x="722" y="292" width="110" height="190" as="geometry"/>
                </mxCell>
                <mxCell id="325" value="&lt;font color=&quot;#ffffff&quot;&gt;Partition 01&lt;/font&gt;" style="rounded=1;whiteSpace=wrap;html=1;fontFamily=Tahoma;fontSize=12;fontColor=#345253;strokeWidth=2;fillColor=#345253;strokeColor=none;" parent="1" vertex="1">
                    <mxGeometry x="737" y="307" width="80" height="40" as="geometry"/>
                </mxCell>
                <mxCell id="326" value="&lt;font color=&quot;#ffffff&quot;&gt;Partition 02&lt;/font&gt;" style="rounded=1;whiteSpace=wrap;html=1;fontFamily=Tahoma;fontSize=12;fontColor=#345253;strokeWidth=2;fillColor=#345253;strokeColor=none;" parent="1" vertex="1">
                    <mxGeometry x="737" y="367" width="80" height="40" as="geometry"/>
                </mxCell>
                <mxCell id="327" value="&lt;font color=&quot;#ffffff&quot;&gt;Partition 03&lt;/font&gt;" style="rounded=1;whiteSpace=wrap;html=1;fontFamily=Tahoma;fontSize=12;fontColor=#345253;strokeWidth=2;fillColor=#345253;strokeColor=none;" parent="1" vertex="1">
                    <mxGeometry x="737" y="427" width="80" height="40" as="geometry"/>
                </mxCell>
                <mxCell id="328" value="&lt;b&gt;&lt;i&gt;RDD G&lt;/i&gt;&lt;/b&gt;" style="text;html=1;strokeColor=none;fillColor=none;align=center;verticalAlign=middle;whiteSpace=wrap;rounded=0;fontFamily=Tahoma;fontSize=14;fontColor=#345253;" parent="1" vertex="1">
                    <mxGeometry x="752" y="269.5" width="50" height="20" as="geometry"/>
                </mxCell>
                <mxCell id="329" value="&lt;b&gt;&lt;i&gt;STAGE 01&lt;/i&gt;&lt;/b&gt;" style="text;html=1;strokeColor=none;fillColor=none;align=center;verticalAlign=middle;whiteSpace=wrap;rounded=0;fontFamily=Tahoma;fontSize=14;fontColor=#345253;" parent="1" vertex="1">
                    <mxGeometry x="111" y="297" width="80" height="20" as="geometry"/>
                </mxCell>
                <mxCell id="330" value="&lt;b&gt;&lt;i&gt;STAGE 02&lt;/i&gt;&lt;/b&gt;" style="text;html=1;strokeColor=none;fillColor=none;align=center;verticalAlign=middle;whiteSpace=wrap;rounded=0;fontFamily=Tahoma;fontSize=14;fontColor=#345253;" parent="1" vertex="1">
                    <mxGeometry x="111" y="657" width="80" height="20" as="geometry"/>
                </mxCell>
                <mxCell id="331" value="&lt;b&gt;&lt;i&gt;STAGE 03&lt;/i&gt;&lt;/b&gt;" style="text;html=1;strokeColor=none;fillColor=none;align=center;verticalAlign=middle;whiteSpace=wrap;rounded=0;fontFamily=Tahoma;fontSize=14;fontColor=#345253;" parent="1" vertex="1">
                    <mxGeometry x="737" y="657" width="80" height="20" as="geometry"/>
                </mxCell>
                <mxCell id="335" style="edgeStyle=none;rounded=0;orthogonalLoop=1;jettySize=auto;html=1;exitX=1;exitY=0.5;exitDx=0;exitDy=0;entryX=0;entryY=0.5;entryDx=0;entryDy=0;endArrow=oval;endFill=1;strokeColor=#999999;" parent="1" source="223" target="322" edge="1">
                    <mxGeometry relative="1" as="geometry"/>
                </mxCell>
                <mxCell id="344" value="map" style="text;html=1;strokeColor=none;fillColor=none;align=center;verticalAlign=middle;whiteSpace=wrap;rounded=0;fontFamily=Tahoma;fontSize=14;fontColor=#345253;fontStyle=2" parent="1" vertex="1">
                    <mxGeometry x="206" y="387" width="70" height="20" as="geometry"/>
                </mxCell>
                <mxCell id="345" value="union" style="text;html=1;strokeColor=none;fillColor=none;align=center;verticalAlign=middle;whiteSpace=wrap;rounded=0;fontFamily=Tahoma;fontSize=14;fontColor=#345253;fontStyle=2" parent="1" vertex="1">
                    <mxGeometry x="381" y="387" width="70" height="20" as="geometry"/>
                </mxCell>
                <mxCell id="346" style="edgeStyle=none;rounded=0;orthogonalLoop=1;jettySize=auto;html=1;exitX=1;exitY=0.5;exitDx=0;exitDy=0;entryX=0;entryY=0.5;entryDx=0;entryDy=0;endArrow=oval;endFill=1;strokeColor=#999999;" parent="1" source="314" target="325" edge="1">
                    <mxGeometry relative="1" as="geometry"/>
                </mxCell>
                <mxCell id="347" style="edgeStyle=none;rounded=0;orthogonalLoop=1;jettySize=auto;html=1;exitX=1;exitY=0.5;exitDx=0;exitDy=0;entryX=0;entryY=0.5;entryDx=0;entryDy=0;endArrow=oval;endFill=1;strokeColor=#999999;" parent="1" source="315" target="326" edge="1">
                    <mxGeometry relative="1" as="geometry"/>
                </mxCell>
                <mxCell id="348" style="edgeStyle=none;rounded=0;orthogonalLoop=1;jettySize=auto;html=1;exitX=1;exitY=0.5;exitDx=0;exitDy=0;entryX=0;entryY=0.5;entryDx=0;entryDy=0;endArrow=oval;endFill=1;strokeColor=#999999;" parent="1" source="316" target="327" edge="1">
                    <mxGeometry relative="1" as="geometry"/>
                </mxCell>
                <mxCell id="349" style="edgeStyle=none;rounded=0;orthogonalLoop=1;jettySize=auto;html=1;exitX=1;exitY=0.5;exitDx=0;exitDy=0;entryX=0;entryY=0.5;entryDx=0;entryDy=0;endArrow=oval;endFill=1;strokeColor=#999999;" parent="1" source="282" target="325" edge="1">
                    <mxGeometry relative="1" as="geometry"/>
                </mxCell>
                <mxCell id="350" style="edgeStyle=none;rounded=0;orthogonalLoop=1;jettySize=auto;html=1;exitX=1;exitY=0.5;exitDx=0;exitDy=0;entryX=0;entryY=0.5;entryDx=0;entryDy=0;endArrow=oval;endFill=1;strokeColor=#999999;" parent="1" source="282" target="326" edge="1">
                    <mxGeometry relative="1" as="geometry"/>
                </mxCell>
                <mxCell id="351" style="edgeStyle=none;rounded=0;orthogonalLoop=1;jettySize=auto;html=1;exitX=1;exitY=0.5;exitDx=0;exitDy=0;entryX=0;entryY=0.5;entryDx=0;entryDy=0;endArrow=oval;endFill=1;strokeColor=#999999;" parent="1" source="282" target="327" edge="1">
                    <mxGeometry relative="1" as="geometry"/>
                </mxCell>
                <mxCell id="352" style="edgeStyle=none;rounded=0;orthogonalLoop=1;jettySize=auto;html=1;exitX=1;exitY=0.5;exitDx=0;exitDy=0;entryX=0;entryY=0.5;entryDx=0;entryDy=0;endArrow=oval;endFill=1;strokeColor=#999999;" parent="1" source="283" target="325" edge="1">
                    <mxGeometry relative="1" as="geometry"/>
                </mxCell>
                <mxCell id="353" style="edgeStyle=none;rounded=0;orthogonalLoop=1;jettySize=auto;html=1;exitX=1;exitY=0.5;exitDx=0;exitDy=0;entryX=0;entryY=0.5;entryDx=0;entryDy=0;endArrow=oval;endFill=1;strokeColor=#999999;" parent="1" source="283" target="326" edge="1">
                    <mxGeometry relative="1" as="geometry"/>
                </mxCell>
                <mxCell id="354" style="edgeStyle=none;rounded=0;orthogonalLoop=1;jettySize=auto;html=1;exitX=1;exitY=0.5;exitDx=0;exitDy=0;entryX=0;entryY=0.5;entryDx=0;entryDy=0;endArrow=oval;endFill=1;strokeColor=#999999;" parent="1" source="283" target="327" edge="1">
                    <mxGeometry relative="1" as="geometry"/>
                </mxCell>
                <mxCell id="355" style="edgeStyle=none;rounded=0;orthogonalLoop=1;jettySize=auto;html=1;exitX=1;exitY=0.5;exitDx=0;exitDy=0;entryX=0;entryY=0.5;entryDx=0;entryDy=0;endArrow=oval;endFill=1;strokeColor=#999999;" parent="1" source="284" target="325" edge="1">
                    <mxGeometry relative="1" as="geometry"/>
                </mxCell>
                <mxCell id="356" style="edgeStyle=none;rounded=0;orthogonalLoop=1;jettySize=auto;html=1;exitX=1;exitY=0.5;exitDx=0;exitDy=0;entryX=0;entryY=0.5;entryDx=0;entryDy=0;endArrow=oval;endFill=1;strokeColor=#999999;" parent="1" source="284" target="326" edge="1">
                    <mxGeometry relative="1" as="geometry"/>
                </mxCell>
                <mxCell id="358" style="edgeStyle=none;rounded=0;orthogonalLoop=1;jettySize=auto;html=1;exitX=1;exitY=0.5;exitDx=0;exitDy=0;entryX=0;entryY=0.5;entryDx=0;entryDy=0;endArrow=oval;endFill=1;strokeColor=#999999;" parent="1" source="284" target="327" edge="1">
                    <mxGeometry relative="1" as="geometry"/>
                </mxCell>
                <mxCell id="359" style="edgeStyle=none;rounded=0;orthogonalLoop=1;jettySize=auto;html=1;exitX=1;exitY=0.5;exitDx=0;exitDy=0;entryX=0;entryY=0.5;entryDx=0;entryDy=0;endArrow=oval;endFill=1;strokeColor=#999999;" parent="1" source="322" target="325" edge="1">
                    <mxGeometry relative="1" as="geometry"/>
                </mxCell>
                <mxCell id="360" style="edgeStyle=none;rounded=0;orthogonalLoop=1;jettySize=auto;html=1;exitX=1;exitY=0.5;exitDx=0;exitDy=0;entryX=0;entryY=0.5;entryDx=0;entryDy=0;endArrow=oval;endFill=1;strokeColor=#999999;" parent="1" source="322" target="326" edge="1">
                    <mxGeometry relative="1" as="geometry"/>
                </mxCell>
                <mxCell id="361" style="edgeStyle=none;rounded=0;orthogonalLoop=1;jettySize=auto;html=1;exitX=1;exitY=0.5;exitDx=0;exitDy=0;entryX=0;entryY=0.5;entryDx=0;entryDy=0;endArrow=oval;endFill=1;strokeColor=#999999;" parent="1" source="322" target="327" edge="1">
                    <mxGeometry relative="1" as="geometry"/>
                </mxCell>
                <mxCell id="363" style="edgeStyle=none;rounded=0;orthogonalLoop=1;jettySize=auto;html=1;exitX=1;exitY=0.5;exitDx=0;exitDy=0;entryX=0;entryY=0.5;entryDx=0;entryDy=0;endArrow=oval;endFill=1;strokeColor=#999999;" parent="1" source="198" target="315" edge="1">
                    <mxGeometry relative="1" as="geometry"/>
                </mxCell>
                <mxCell id="364" style="edgeStyle=none;rounded=0;orthogonalLoop=1;jettySize=auto;html=1;exitX=1;exitY=0.5;exitDx=0;exitDy=0;entryX=0;entryY=0.5;entryDx=0;entryDy=0;endArrow=oval;endFill=1;strokeColor=#999999;" parent="1" source="198" target="316" edge="1">
                    <mxGeometry relative="1" as="geometry"/>
                </mxCell>
                <mxCell id="365" style="edgeStyle=none;rounded=0;orthogonalLoop=1;jettySize=auto;html=1;exitX=1;exitY=0.5;exitDx=0;exitDy=0;entryX=0;entryY=0.5;entryDx=0;entryDy=0;endArrow=oval;endFill=1;strokeColor=#999999;" parent="1" source="199" target="314" edge="1">
                    <mxGeometry relative="1" as="geometry"/>
                </mxCell>
                <mxCell id="366" style="edgeStyle=none;rounded=0;orthogonalLoop=1;jettySize=auto;html=1;exitX=1;exitY=0.5;exitDx=0;exitDy=0;entryX=0;entryY=0.5;entryDx=0;entryDy=0;endArrow=oval;endFill=1;strokeColor=#999999;" parent="1" source="199" target="316" edge="1">
                    <mxGeometry relative="1" as="geometry"/>
                </mxCell>
                <mxCell id="367" style="edgeStyle=none;rounded=0;orthogonalLoop=1;jettySize=auto;html=1;exitX=1;exitY=0.5;exitDx=0;exitDy=0;entryX=0;entryY=0.5;entryDx=0;entryDy=0;endArrow=oval;endFill=1;strokeColor=#999999;" parent="1" source="200" target="314" edge="1">
                    <mxGeometry relative="1" as="geometry"/>
                </mxCell>
                <mxCell id="368" style="edgeStyle=none;rounded=0;orthogonalLoop=1;jettySize=auto;html=1;exitX=1;exitY=0.5;exitDx=0;exitDy=0;entryX=0;entryY=0.5;entryDx=0;entryDy=0;endArrow=oval;endFill=1;strokeColor=#999999;" parent="1" source="200" target="315" edge="1">
                    <mxGeometry relative="1" as="geometry"/>
                </mxCell>
                <mxCell id="341" style="edgeStyle=none;rounded=0;orthogonalLoop=1;jettySize=auto;html=1;exitX=1;exitY=0.5;exitDx=0;exitDy=0;entryX=0;entryY=0.5;entryDx=0;entryDy=0;endArrow=oval;endFill=1;strokeColor=#999999;" parent="1" source="198" target="314" edge="1">
                    <mxGeometry relative="1" as="geometry"/>
                </mxCell>
                <mxCell id="342" style="edgeStyle=none;rounded=0;orthogonalLoop=1;jettySize=auto;html=1;exitX=1;exitY=0.5;exitDx=0;exitDy=0;entryX=0;entryY=0.5;entryDx=0;entryDy=0;endArrow=oval;endFill=1;strokeColor=#999999;" parent="1" source="199" target="315" edge="1">
                    <mxGeometry relative="1" as="geometry"/>
                </mxCell>
                <mxCell id="343" style="edgeStyle=none;rounded=0;orthogonalLoop=1;jettySize=auto;html=1;exitX=1;exitY=0.5;exitDx=0;exitDy=0;entryX=0;entryY=0.5;entryDx=0;entryDy=0;endArrow=oval;endFill=1;strokeColor=#999999;" parent="1" source="200" target="316" edge="1">
                    <mxGeometry relative="1" as="geometry"/>
                </mxCell>
                <mxCell id="372" value="join" style="text;html=1;strokeColor=none;fillColor=none;align=center;verticalAlign=middle;whiteSpace=wrap;rounded=0;fontFamily=Tahoma;fontSize=14;fontColor=#345253;fontStyle=2" parent="1" vertex="1">
                    <mxGeometry x="631" y="510" width="70" height="20" as="geometry"/>
                </mxCell>
                <mxCell id="373" value="groupByKey" style="text;html=1;strokeColor=none;fillColor=none;align=center;verticalAlign=middle;whiteSpace=wrap;rounded=0;fontFamily=Tahoma;fontSize=14;fontColor=#345253;fontStyle=2" parent="1" vertex="1">
                    <mxGeometry x="291" y="114" width="70" height="20" as="geometry"/>
                </mxCell>
            </root>
        </mxGraphModel>
    </diagram>
</mxfile>